<?xml version="1.0" standalone="no"?>
<!DOCTYPE svg PUBLIC "-//W3C//DTD SVG 20010904//EN"
 "http://www.w3.org/TR/2001/REC-SVG-20010904/DTD/svg10.dtd">
<svg version="1.0" xmlns="http://www.w3.org/2000/svg"
 width="1338.000000pt" height="810.000000pt" viewBox="0 0 1338.000000 810.000000"
 preserveAspectRatio="xMidYMid meet">

<g transform="translate(0.000000,810.000000) scale(0.100000,-0.100000)"
fill="#000000" stroke="none">
<path d="M0 4050 l0 -4050 6690 0 6690 0 0 4050 0 4050 -6690 0 -6690 0 0
-4050z m7880 3419 c0 -17 7 -19 60 -19 53 0 60 -2 60 -20 0 -13 7 -20 20 -20
13 0 20 -7 20 -20 0 -17 7 -20 45 -20 41 0 45 -2 45 -25 0 -18 5 -25 20 -25
17 0 20 -7 20 -40 0 -33 3 -40 20 -40 13 0 20 -7 20 -20 0 -13 7 -20 20 -20
17 0 20 -7 22 -47 0 -27 1 -55 2 -63 1 -8 11 -16 24 -18 l22 -3 -2 -167 c-3
-159 -4 -167 -23 -167 -16 0 -21 -8 -23 -42 -3 -35 -7 -43 -23 -43 -15 0 -19
-7 -19 -39 0 -30 -4 -40 -20 -44 -12 -3 -20 -14 -20 -25 0 -15 -5 -19 -20 -15
-16 4 -20 0 -20 -21 0 -19 -5 -26 -20 -26 -13 0 -20 -7 -20 -20 0 -17 -7 -20
-45 -20 -38 0 -45 -3 -45 -20 0 -17 -7 -20 -40 -20 -33 0 -40 -3 -40 -20 0
-19 -7 -20 -190 -20 -183 0 -190 1 -190 20 0 17 -7 20 -40 20 -33 0 -40 3 -40
20 0 17 -7 20 -45 20 -38 0 -45 3 -45 20 0 13 -7 20 -19 20 -13 0 -21 8 -23
23 -2 12 -10 22 -18 22 -8 0 -17 9 -20 20 -3 11 -16 21 -28 23 -18 3 -22 10
-22 43 0 32 -3 39 -20 39 -18 0 -20 7 -20 65 0 58 -2 65 -20 65 -19 0 -20 7
-20 145 0 138 1 145 20 145 17 0 20 7 20 45 0 38 3 45 20 45 17 0 20 7 20 40
0 36 3 40 25 40 18 0 25 5 25 20 0 13 7 20 20 20 13 0 20 7 20 20 0 13 7 20
20 20 15 0 20 7 20 25 0 18 5 25 20 25 13 0 20 7 20 20 0 15 7 20 25 20 19 0
25 6 26 23 l2 22 4 -22 c5 -28 23 -30 23 -3 0 17 7 20 45 20 37 0 45 3 45 18
0 10 2 21 4 23 2 2 70 3 150 1 137 -3 146 -4 146 -23z m-850 -124 c0 -8 -9
-15 -20 -15 -13 0 -18 5 -14 15 4 8 12 15 20 15 8 0 14 -7 14 -15z m4748 -142
c20 -13 23 -21 19 -56 -6 -58 -46 -248 -58 -272 -9 -21 -25 -87 -39 -165 -4
-25 -19 -83 -32 -130 -14 -47 -35 -130 -48 -185 -13 -55 -27 -105 -31 -111 -9
-11 -133 4 -155 18 -9 6 -6 30 9 87 12 44 19 82 17 85 -3 2 -34 6 -70 8 l-64
3 -45 -93 -45 -93 -41 6 c-22 3 -66 7 -98 9 -85 4 -87 12 -33 103 82 136 113
183 134 206 11 12 34 49 50 82 17 33 50 88 74 122 24 34 91 134 150 222 60 88
116 164 125 170 24 14 152 2 181 -16z m242 -116 c58 -16 70 -24 70 -47 0 -17
-20 -69 -50 -131 -8 -16 -54 -132 -64 -162 -4 -13 2 -21 21 -30 20 -9 27 -9
30 0 9 25 134 278 142 286 5 5 24 2 45 -7 45 -19 46 -40 10 -122 -68 -151
-188 -449 -198 -489 -4 -16 -18 -52 -30 -80 -12 -27 -28 -65 -35 -82 -14 -34
-28 -40 -59 -24 -9 5 -25 12 -34 15 -20 6 -23 37 -8 64 5 9 21 52 35 96 14 43
32 91 41 108 8 16 13 36 10 45 -12 30 -38 6 -67 -62 -17 -38 -41 -92 -54 -120
-13 -27 -27 -62 -30 -77 -4 -16 -10 -28 -14 -28 -24 2 -126 31 -134 39 -6 6 1
36 21 84 16 40 33 89 37 108 4 19 14 50 22 69 28 65 31 75 36 100 3 14 18 61
35 105 16 44 33 96 37 115 4 19 27 77 51 127 24 51 44 97 44 103 0 13 34 12
90 -3z m385 -191 c62 -26 61 -41 -5 -172 -33 -65 -57 -121 -53 -125 5 -4 19
-10 33 -14 23 -5 29 1 74 85 26 50 55 94 63 97 19 7 61 -16 68 -37 5 -15 -7
-40 -67 -145 -9 -16 -39 -75 -65 -130 -93 -195 -188 -378 -198 -382 -5 -1 -23
7 -38 20 l-29 23 32 69 c17 39 41 88 52 110 11 22 31 64 44 92 20 47 21 54 8
68 -24 23 -40 18 -55 -17 -7 -18 -37 -82 -66 -143 -29 -60 -53 -117 -53 -127
0 -9 -5 -20 -11 -24 -11 -6 -78 23 -90 40 -10 13 22 122 61 211 10 22 32 74
50 115 18 41 47 107 65 145 19 39 50 106 70 150 53 115 52 115 110 91z m310
-240 c41 -18 47 -51 16 -95 -37 -51 -83 -171 -67 -171 2 0 11 -3 20 -6 11 -4
30 17 70 79 30 47 59 88 65 91 13 8 81 -52 81 -71 0 -9 -39 -74 -87 -147 -76
-116 -102 -157 -138 -217 -6 -10 -25 -38 -42 -63 -18 -26 -33 -49 -33 -52 0
-3 -10 -20 -23 -39 l-23 -34 -35 21 c-19 11 -37 25 -41 31 -3 6 16 46 43 89
27 44 49 86 49 94 0 8 5 14 10 14 16 0 12 37 -5 44 -13 5 -45 -27 -45 -46 0
-3 -23 -44 -52 -90 -29 -46 -53 -84 -53 -85 -3 -8 -82 28 -90 41 -11 17 19 81
128 272 35 61 69 125 75 143 6 17 20 44 30 59 10 15 25 43 32 62 19 47 51 90
67 90 8 0 29 -7 48 -14z m305 -263 c22 -21 40 -44 40 -51 0 -13 -43 -81 -104
-163 -30 -41 -32 -47 -19 -65 14 -18 16 -17 61 33 26 28 63 71 83 95 l37 43
26 -24 c40 -37 33 -59 -42 -136 -37 -39 -83 -90 -102 -115 -19 -25 -42 -53
-50 -62 -8 -9 -44 -55 -80 -102 -36 -47 -70 -85 -75 -85 -6 -1 -22 10 -37 24
l-28 25 66 78 c86 102 89 108 63 123 -12 6 -25 7 -29 2 -15 -16 -115 -151
-126 -169 -10 -18 -14 -16 -58 19 l-46 39 30 41 c16 22 30 45 30 49 0 12 92
148 100 148 9 0 46 56 164 248 14 23 33 42 41 42 9 0 33 -17 55 -37z m-4600
-58 c0 -8 -7 -15 -15 -15 -8 0 -15 7 -15 15 0 8 7 15 15 15 8 0 15 -7 15 -15z
m-1260 -96 c0 -5 -9 -9 -20 -9 -19 0 -27 20 -13 33 7 8 33 -11 33 -24z m6107
-116 c18 -20 33 -45 33 -56 0 -11 -60 -79 -145 -165 l-146 -145 -29 28 c-17
16 -30 36 -30 45 0 8 39 61 88 116 48 55 109 126 136 157 27 31 52 57 55 57 3
0 20 -17 38 -37z m-320 -355 c26 -34 24 -108 -3 -108 -8 0 -14 -4 -14 -10 0
-5 -16 -10 -35 -10 -38 0 -55 20 -55 65 0 51 80 98 107 63z m-12517 -292 c52
-129 98 -232 101 -228 4 4 48 109 99 235 l92 227 83 0 82 0 -140 -340 -140
-340 -78 0 c-44 0 -79 2 -79 5 0 3 18 48 40 100 21 52 36 95 33 95 -3 0 -30
-21 -60 -46 -30 -26 -55 -45 -57 -43 -2 3 -144 345 -223 537 l-13 32 82 0 83
0 95 -234z m813 40 c44 -22 47 -22 47 -5 0 17 9 19 76 19 74 0 76 -1 70 -22
-3 -13 -6 -123 -6 -245 l0 -223 -70 0 -70 0 0 135 c0 155 -11 193 -62 225 -42
25 -84 25 -125 0 -118 -72 -58 -261 78 -246 l46 5 22 -46 c25 -52 23 -56 -44
-74 -186 -51 -365 146 -301 329 50 141 213 212 339 148z m273 -522 c16 -4 19
-12 16 -34 -2 -16 -21 -167 -41 -337 l-37 -308 -69 3 c-39 2 -72 5 -73 7 -4 3
73 593 84 648 5 25 9 27 52 27 26 0 56 -3 68 -6z m-386 -344 l0 -340 -75 0
-75 0 0 168 c0 92 3 245 7 340 l6 172 69 0 68 0 0 -340z m-489 270 c114 -32
201 -161 182 -274 l-6 -36 -127 0 -128 0 -31 50 c-17 28 -31 52 -31 55 0 3 41
5 91 5 l90 0 -18 31 c-52 89 -176 70 -203 -33 -31 -115 98 -231 174 -155 l23
23 62 -29 62 -29 -28 -30 c-50 -53 -99 -73 -183 -73 -57 0 -84 5 -115 22 -116
62 -172 194 -131 311 46 129 183 199 317 162z m11427 -3022 c98 -40 177 -121
205 -212 9 -30 12 -154 12 -451 l0 -410 -33 -67 c-37 -76 -82 -120 -162 -157
l-55 -26 -1355 0 -1355 0 -57 27 c-75 35 -141 103 -170 176 -21 55 -22 70 -26
420 -4 382 2 463 38 537 44 91 140 160 243 175 29 4 642 7 1362 6 1214 -1
1313 -2 1353 -18z m-8948 -97 c131 -41 321 -172 395 -272 43 -58 97 -181 114
-256 11 -54 50 0 -349 -482 l-194 -234 -66 7 c-78 7 -148 29 -250 81 -107 54
-210 126 -260 182 -75 85 -130 225 -130 334 0 43 -7 33 328 438 l194 234 77
-6 c42 -3 105 -15 141 -26z"/>
<path d="M7490 7180 c0 -18 -7 -20 -61 -20 -51 0 -62 -3 -66 -19 -3 -11 -14
-21 -25 -24 -27 -7 -20 -41 10 -45 14 -2 22 -10 22 -23 0 -12 7 -19 20 -19 13
0 20 7 20 20 0 19 7 20 235 20 228 0 235 -1 235 -20 0 -18 7 -20 60 -20 52 0
60 -2 60 -19 0 -15 10 -19 58 -24 31 -2 60 -3 65 0 4 2 7 24 7 49 0 37 -3 44
-20 44 -13 0 -20 7 -20 20 0 17 -7 20 -45 20 -38 0 -45 3 -45 20 0 19 -7 20
-100 20 -93 0 -100 1 -100 20 0 19 -7 20 -155 20 -148 0 -155 -1 -155 -20z"/>
<path d="M7450 6970 c0 -17 -7 -20 -40 -20 l-40 0 0 -45 0 -45 66 0 c61 0 66
1 61 20 -5 19 0 20 144 20 142 0 149 -1 149 -20 0 -18 7 -20 65 -20 58 0 65
-2 65 -20 0 -17 7 -20 40 -20 33 0 40 -3 40 -20 0 -15 7 -20 25 -20 18 0 25 5
25 20 0 13 7 20 20 20 13 0 20 7 20 20 0 13 -7 20 -19 20 -13 0 -21 8 -23 23
-2 18 -10 23 -45 25 -35 3 -43 7 -43 23 0 17 -7 19 -59 19 -50 0 -59 3 -64 20
-5 19 -14 20 -196 20 -184 0 -191 -1 -191 -20z"/>
<path d="M7563 6813 c-13 -2 -23 -8 -23 -13 0 -5 10 -11 23 -13 12 -2 -17 -5
-65 -6 l-88 -1 0 -45 0 -45 45 0 c38 0 45 3 45 20 0 19 7 20 145 20 138 0 145
-1 145 -20 0 -18 7 -20 65 -20 58 0 65 -2 65 -20 0 -17 7 -20 40 -20 33 0 40
3 40 20 0 13 -7 20 -19 20 -13 0 -21 8 -23 23 -2 18 -10 23 -40 25 -30 3 -38
7 -38 23 0 17 -8 19 -85 19 -78 0 -85 2 -85 20 0 18 -6 20 -62 19 -35 -1 -73
-4 -85 -6z"/>
<path d="M11477 6751 l-58 -111 34 0 c31 0 34 3 44 43 6 23 19 68 28 100 9 32
14 64 13 69 -2 6 -30 -39 -61 -101z"/>
<path d="M9659 1513 c-1 -5 -1 -12 0 -16 1 -5 -3 -6 -8 -3 -13 8 -85 -76 -111
-128 -30 -63 -24 -124 20 -171 10 -11 21 -31 24 -45 7 -24 6 -24 -8 -6 -26 33
-17 4 12 -39 40 -58 106 -88 196 -88 74 -1 153 24 141 43 -3 6 -12 7 -18 3 -7
-4 -49 -6 -95 -5 -65 1 -90 6 -111 22 -16 10 -31 17 -34 14 -3 -3 -8 4 -12 15
-3 12 -20 28 -36 36 -31 16 -36 29 -17 41 8 5 9 1 4 -12 -5 -14 -4 -16 4 -8 9
9 25 5 63 -14 94 -47 223 -26 280 45 10 13 22 21 27 18 8 -5 5 7 -20 86 -12
33 -10 37 19 66 17 17 31 40 31 50 0 25 -28 63 -46 63 -8 0 -14 4 -14 8 0 9
-7 10 -132 18 -76 5 -88 4 -88 -10 0 -18 -25 -22 -35 -6 -4 6 -11 8 -16 5 -5
-3 -6 1 -3 9 3 9 1 16 -5 16 -6 0 -12 -3 -12 -7z m214 -92 c17 -17 -5 -32 -44
-30 -21 2 -41 0 -45 -4 -4 -4 -25 -7 -46 -7 -38 0 -53 20 -26 36 36 23 140 26
161 5z m-13 -121 c19 -12 20 -42 0 -58 -12 -10 -8 -11 25 -6 23 4 47 15 57 28
10 11 18 16 18 10 0 -6 -18 -34 -41 -62 -30 -38 -51 -54 -81 -62 -56 -16 -137
-3 -196 31 -45 25 -50 31 -48 61 2 45 34 61 106 53 30 -3 62 -1 70 5 19 12 70
13 90 0z"/>
<path d="M11372 1452 c-49 -50 -88 -135 -76 -165 3 -9 15 -19 26 -23 11 -3 17
-8 14 -12 -3 -3 2 -14 11 -25 10 -11 12 -17 6 -13 -9 5 -11 2 -7 -9 5 -12 9
-13 21 -3 11 9 16 9 24 -3 5 -8 9 -16 9 -19 0 -16 76 -31 160 -33 52 -1 98 -6
102 -12 5 -6 8 -6 8 2 0 7 19 21 43 31 52 24 111 77 102 91 -3 6 1 11 9 11 26
0 46 39 35 69 -19 53 -33 70 -60 76 -15 4 -33 12 -39 20 -6 8 -17 12 -25 9 -7
-3 -30 2 -51 11 -22 9 -79 19 -128 22 -78 5 -89 4 -83 -10 3 -8 0 -18 -8 -20
-8 -4 -15 5 -19 24 -3 16 -10 29 -16 29 -6 0 -32 -22 -58 -48z m253 -67 c37
-7 38 -8 17 -16 -13 -5 -28 -7 -32 -4 -5 3 -28 1 -51 -4 -59 -13 -81 0 -37 22
18 9 40 15 48 13 8 -3 33 -7 55 -11z m73 -127 c17 -15 15 -25 -11 -54 -30 -32
-87 -46 -155 -38 -47 6 -102 34 -102 53 0 3 14 15 32 25 55 33 201 41 236 14z
m52 -22 c0 -2 -7 -7 -16 -10 -8 -3 -12 -2 -9 4 6 10 25 14 25 6z"/>
<path d="M10171 1459 c-19 -7 -22 -12 -13 -21 7 -7 12 -16 12 -22 0 -5 -6 -2
-13 9 -9 11 -19 15 -27 10 -10 -6 -9 -9 1 -17 10 -6 7 -7 -8 -3 -18 5 -33 -4
-73 -44 -27 -27 -50 -55 -50 -61 0 -7 19 -48 42 -92 52 -102 91 -132 190 -148
39 -7 96 -9 127 -6 59 7 148 45 143 60 -2 5 2 13 10 17 10 7 10 9 0 9 -7 0
-11 4 -8 9 3 5 -3 20 -14 32 l-20 24 10 -29 c13 -36 3 -48 -17 -21 -15 19 -15
19 -8 -5 l6 -25 -21 25 -21 25 7 -25 c4 -14 9 -32 12 -40 3 -9 -2 -6 -11 5
l-16 20 -1 -20 c-1 -18 -2 -17 -15 5 -13 22 -14 23 -15 5 -1 -17 -3 -16 -16 8
-17 32 -24 35 -17 7 3 -11 0 -20 -6 -20 -6 0 -11 6 -11 13 0 8 -4 7 -10 -3 -8
-12 -10 -12 -11 5 0 19 -1 18 -11 -2 -11 -23 -28 -31 -28 -13 0 5 -7 7 -15 4
-9 -4 -15 -1 -15 7 0 8 -6 5 -15 -7 -15 -19 -16 -19 -13 1 2 12 -2 19 -9 18
-8 -2 -13 7 -13 22 0 14 -3 24 -7 24 -21 -3 -33 3 -33 17 0 10 -6 14 -15 10
-10 -3 -15 1 -15 13 0 23 47 26 72 4 40 -36 154 -46 209 -19 22 11 55 16 101
15 38 -1 71 0 73 3 3 2 0 21 -6 42 -6 21 -8 47 -6 58 4 15 2 17 -8 8 -14 -12
-45 -3 -45 12 0 6 -13 8 -30 6 -16 -3 -30 0 -30 5 0 5 -7 7 -15 3 -8 -3 -15
-1 -15 5 0 6 -4 7 -10 4 -5 -3 -10 -1 -10 4 0 6 -9 11 -20 11 -11 0 -20 6 -20
13 0 8 -4 7 -10 -3 -8 -12 -10 -12 -10 -1 0 8 -3 12 -6 8 -4 -3 -19 0 -35 9
-35 18 -45 17 -41 -2 3 -13 -1 -13 -17 -4 -17 8 -21 8 -21 -3 0 -8 -7 -14 -15
-14 -18 0 -20 38 -3 55 14 14 3 15 -31 1z m139 -208 c0 -14 -6 -14 -31 0 -16
8 -18 13 -9 24 10 12 14 12 26 0 8 -7 14 -18 14 -24z m50 14 c0 -8 -9 -15 -20
-15 -13 0 -18 5 -14 15 4 8 12 15 20 15 8 0 14 -7 14 -15z"/>
<path d="M10745 1454 c-11 -8 -19 -19 -18 -24 2 -5 -3 -7 -11 -4 -18 7 -75
-51 -104 -106 l-23 -45 21 -17 c12 -10 17 -18 10 -18 -19 0 41 -99 78 -130 45
-37 101 -50 213 -50 102 0 183 20 221 54 13 12 19 18 14 14 -17 -14 -24 -9
-19 13 5 19 3 20 -18 14 -13 -4 -29 -12 -36 -17 -7 -6 -13 -4 -16 4 -3 7 -6 3
-6 -8 -1 -25 -20 -35 -52 -27 -16 4 -20 3 -15 -6 6 -9 -6 -11 -51 -8 -64 4
-143 25 -143 39 0 4 -7 8 -16 8 -11 0 -14 6 -9 23 6 20 5 21 -8 4 -14 -16 -15
-16 -20 5 -4 12 -4 24 -2 27 3 2 5 -1 5 -9 0 -10 3 -10 16 1 9 7 37 12 62 12
l47 -2 -37 12 c-43 14 -59 27 -33 27 14 0 15 3 5 15 -10 12 -10 15 2 15 8 0
14 10 13 27 0 52 86 69 175 35 34 -13 45 -23 46 -40 2 -28 -9 -35 -71 -44 -31
-4 -18 -5 34 -2 51 4 81 2 77 -4 -9 -15 -86 -33 -148 -35 -32 -1 -58 -5 -58
-9 0 -11 101 -10 136 1 16 5 62 12 103 15 81 6 134 30 139 62 4 26 -34 75 -53
68 -8 -3 -27 6 -42 20 -31 29 -65 41 -88 32 -11 -4 -14 -2 -9 6 5 7 2 9 -9 5
-9 -3 -17 -1 -19 4 -4 11 -42 17 -150 24 -54 3 -68 1 -68 -11 0 -23 -24 -16
-36 11 -9 18 -9 25 0 29 6 2 7 5 1 5 -5 0 -19 -7 -30 -15z m15 -20 c0 -8 -5
-12 -10 -9 -6 4 -8 11 -5 16 9 14 15 11 15 -7z m-90 -225 c0 -6 -4 -7 -10 -4
-5 3 -10 11 -10 16 0 6 5 7 10 4 6 -3 10 -11 10 -16z m21 -16 c-10 -17 -10
-16 -11 3 0 23 13 41 18 25 2 -6 -1 -18 -7 -28z m31 15 c-7 -7 -12 -8 -12 -2
0 14 12 26 19 19 2 -3 -1 -11 -7 -17z"/>
<path d="M10200 1439 c0 -5 5 -7 10 -4 6 3 10 8 10 11 0 2 -4 4 -10 4 -5 0
-10 -5 -10 -11z"/>
<path d="M11008 1273 c7 -3 16 -2 19 1 4 3 -2 6 -13 5 -11 0 -14 -3 -6 -6z"/>
<path d="M10843 1243 c9 -2 23 -2 30 0 6 3 -1 5 -18 5 -16 0 -22 -2 -12 -5z"/>
<path d="M10513 1212 c-8 -5 -9 -13 -3 -22 8 -13 10 -12 10 3 0 11 4 15 12 11
7 -4 8 -3 4 4 -8 14 -8 14 -23 4z"/>
<path d="M11321 1210 c-1 -23 48 -122 58 -116 5 3 8 -2 7 -11 0 -10 16 -27 44
-42 39 -23 57 -26 135 -26 74 0 98 4 132 22 46 25 86 70 76 86 -3 5 -1 7 5 3
11 -6 42 30 42 49 0 5 -5 2 -11 -8 -10 -18 -11 -18 -25 0 -14 17 -14 17 -12
-2 2 -11 -2 -19 -8 -18 -7 1 -11 -5 -10 -15 0 -9 -5 -16 -11 -14 -7 1 -13 -3
-13 -9 0 -6 -7 -8 -16 -5 -12 4 -15 2 -10 -9 7 -18 -5 -20 -23 -2 -10 10 -11
9 -6 -5 6 -14 2 -15 -27 -9 -18 4 -42 7 -53 6 -11 0 -23 5 -27 10 -5 6 -8 3
-8 -6 0 -13 -9 -16 -42 -14 -24 1 -45 3 -48 5 -3 1 -8 2 -12 1 -4 0 -10 8 -13
19 -4 11 -10 18 -15 15 -10 -6 -22 23 -14 36 3 5 -4 9 -14 9 -23 0 -37 -26
-19 -34 9 -3 8 -5 -1 -5 -19 -1 -27 29 -13 51 9 15 9 19 -1 17 -26 -3 -37 1
-41 19 -3 12 -5 13 -6 2z"/>
<path d="M2856 1458 c-21 -29 -12 -38 39 -38 53 0 186 -66 227 -112 60 -69 88
-179 63 -251 -26 -77 33 -76 67 1 40 89 5 233 -74 309 -18 17 -68 50 -111 72
-66 35 -87 41 -137 41 -49 0 -61 -4 -74 -22z"/>
<path d="M2704 1305 c-19 -29 -14 -48 20 -70 47 -31 94 22 62 70 -22 33 -60
33 -82 0z"/>
<path d="M3002 984 c-27 -18 -29 -55 -4 -77 24 -22 45 -21 65 1 23 26 21 58
-5 76 -12 9 -25 16 -28 16 -3 0 -16 -7 -28 -16z"/>
</g>
</svg>
