<?xml version="1.0" standalone="no"?>
<!DOCTYPE svg PUBLIC "-//W3C//DTD SVG 20010904//EN"
 "http://www.w3.org/TR/2001/REC-SVG-20010904/DTD/svg10.dtd">
<svg version="1.0" xmlns="http://www.w3.org/2000/svg"
 width="1920.000000pt" height="1081.000000pt" viewBox="0 0 1920.000000 1081.000000"
 preserveAspectRatio="xMidYMid meet">

<g transform="translate(0.000000,1081.000000) scale(0.100000,-0.100000)"
fill="#000000" stroke="none">
<path d="M0 5410 l0 -5400 9600 0 9600 0 0 5400 0 5400 -9600 0 -9600 0 0
-5400z m8980 5100 c0 -13 -7 -20 -20 -20 -13 0 -20 7 -20 20 0 13 7 20 20 20
13 0 20 -7 20 -20z m7635 -304 c2 -11 19 -95 38 -184 l34 -164 -21 -8 c-28
-11 -40 5 -55 74 -12 53 -25 75 -38 62 -3 -3 3 -37 12 -77 17 -70 17 -73 -1
-86 -36 -26 -46 -11 -86 127 -22 74 -44 151 -50 170 -5 19 -12 49 -15 66 -4
28 -2 32 22 38 15 4 30 5 33 2 3 -3 14 -33 26 -67 12 -34 26 -61 31 -60 12 2
12 52 1 98 -6 28 -5 32 16 35 33 6 48 -1 53 -26z m127 -6 c4 -19 10 -52 13
-72 4 -26 11 -38 22 -38 13 0 15 10 9 70 -6 59 -5 71 9 76 33 13 42 -13 48
-138 4 -68 9 -144 13 -170 6 -46 6 -48 -18 -48 -24 0 -26 4 -31 61 -3 34 -10
66 -16 72 -18 18 -24 -18 -13 -80 5 -32 9 -59 8 -60 -1 -2 -16 -6 -33 -9 l-31
-6 -16 70 c-9 39 -16 81 -16 94 0 13 -7 55 -16 93 -31 143 -33 127 17 123 41
-3 44 -5 51 -38z m206 -102 l3 -128 -29 0 c-29 0 -29 0 -36 77 -3 42 -6 100
-6 130 l0 54 33 -3 32 -3 3 -127z m-652 27 c13 -38 24 -71 24 -72 0 -6 15 -2
28 5 10 7 9 17 -3 51 -23 66 -20 91 10 91 21 0 26 -7 35 -42 6 -24 35 -115 64
-203 52 -155 53 -160 33 -168 -27 -10 -30 -6 -62 93 -30 94 -37 105 -58 97
-12 -5 -10 -20 15 -89 44 -122 43 -117 17 -127 -30 -11 -41 -2 -64 51 -10 24
-27 62 -37 85 -10 23 -18 48 -18 55 0 8 -4 18 -9 24 -5 5 -16 36 -26 69 -10
33 -21 65 -25 70 -15 21 -19 59 -8 72 6 8 23 13 36 11 22 -3 29 -13 48 -73z
m-102 -96 c24 -63 57 -144 73 -180 57 -125 59 -130 38 -145 -10 -8 -24 -14
-30 -14 -10 0 -47 72 -75 144 -8 22 -14 26 -22 18 -8 -8 -2 -34 21 -97 18 -48
31 -88 30 -89 -46 -35 -79 -46 -79 -26 0 5 -36 83 -80 173 -63 129 -120 263
-120 283 0 1 16 12 36 23 42 25 54 19 72 -36 22 -63 55 -133 64 -133 18 0 18
28 -3 85 -32 90 -35 122 -12 127 29 7 41 -11 87 -133z m-289 -31 c25 -40 89
-145 141 -233 l95 -160 -33 -27 c-18 -15 -39 -28 -45 -28 -7 0 -22 18 -33 40
-11 22 -23 40 -27 40 -4 0 -19 -12 -34 -26 l-27 -26 19 -56 c11 -31 16 -58 11
-60 -5 -1 -26 -18 -47 -37 -22 -19 -42 -32 -46 -29 -4 2 -17 48 -28 102 -12
53 -26 115 -31 137 -15 59 -60 325 -60 354 0 27 54 80 82 81 11 0 35 -27 63
-72z m1036 -58 c22 -13 25 -52 5 -69 -35 -29 -76 35 -44 67 15 15 15 15 39 2z
m-13062 -2690 l340 -295 1 -64 c0 -150 -54 -266 -190 -401 -114 -114 -210
-182 -308 -216 l-73 -25 -371 323 c-205 178 -381 330 -391 338 -16 13 -17 21
-6 70 19 94 71 189 156 283 142 158 252 235 383 271 103 28 85 40 459 -284z
m5421 -715 c0 -11 12 -15 50 -15 43 0 50 -3 50 -20 0 -13 7 -20 20 -20 11 0
20 -7 20 -15 0 -10 11 -15 35 -15 28 0 35 -4 35 -20 0 -11 7 -20 15 -20 10 0
15 -10 15 -31 0 -22 5 -32 20 -36 11 -3 20 -12 20 -19 0 -8 7 -14 15 -14 11 0
15 -12 15 -49 0 -40 3 -50 20 -54 19 -5 20 -14 20 -141 0 -129 -1 -136 -20
-136 -16 0 -20 -7 -20 -35 0 -24 -5 -35 -15 -35 -10 0 -15 -11 -15 -35 0 -28
-4 -35 -20 -35 -11 0 -20 -7 -20 -15 0 -8 -6 -15 -14 -15 -7 0 -16 -9 -19 -20
-3 -11 -12 -20 -21 -20 -9 0 -16 -7 -16 -15 0 -10 -10 -15 -31 -15 -22 0 -32
-5 -36 -19 -3 -14 -15 -21 -37 -23 -18 -2 -30 -8 -29 -15 2 -10 -33 -13 -152
-13 -131 0 -155 2 -155 15 0 10 -11 15 -35 15 -28 0 -35 4 -35 20 0 16 -7 20
-35 20 -24 0 -35 5 -35 15 0 8 -7 15 -16 15 -9 0 -18 9 -21 20 -3 11 -12 20
-19 20 -8 0 -14 7 -14 15 0 8 -9 15 -20 15 -16 0 -20 7 -20 35 0 24 -5 35 -15
35 -11 0 -15 12 -15 51 0 40 -4 52 -17 55 -16 5 -18 19 -18 122 0 97 3 117 15
117 10 0 16 12 18 38 2 24 8 37 18 37 9 0 14 11 14 30 0 23 4 30 20 30 13 0
20 7 20 20 0 11 7 20 15 20 8 0 15 6 15 14 0 7 9 16 20 19 11 3 20 12 20 21 0
9 7 16 15 16 8 0 15 6 15 14 0 8 15 17 35 20 19 4 34 12 32 19 -1 7 13 13 36
15 24 2 37 8 37 18 0 11 22 14 120 14 100 0 120 -2 120 -15z m-700 -105 c0 -5
-4 -10 -10 -10 -5 0 -10 5 -10 10 0 6 5 10 10 10 6 0 10 -4 10 -10z m1150
-825 c0 -8 -7 -15 -15 -15 -16 0 -20 12 -8 23 11 12 23 8 23 -8z m-1040 -75
c0 -5 -7 -10 -15 -10 -8 0 -15 5 -15 10 0 6 7 10 15 10 8 0 15 -4 15 -10z
m-2267 -2907 c8 -59 8 -107 -1 -120 -6 -9 -219 -12 -894 -14 -487 -1 -891 2
-897 5 -12 8 -16 148 -4 159 3 4 408 7 899 7 l892 0 5 -37z m5595 -95 c98 -39
177 -121 205 -212 9 -31 12 -184 12 -596 l0 -555 -26 -55 c-37 -80 -81 -125
-157 -162 l-67 -33 -1035 0 -1035 0 -57 27 c-74 35 -141 103 -170 176 -23 56
-23 62 -26 566 -2 308 1 534 7 573 24 154 127 261 274 283 29 4 498 7 1042 6
910 -1 993 -2 1033 -18z m-5888 -138 c0 -5 -11 -10 -24 -10 -38 0 -111 -35
-134 -64 -11 -14 -25 -49 -32 -76 -11 -46 -14 -50 -42 -50 -28 0 -29 1 -26 43
3 41 4 42 35 39 34 -4 50 19 37 52 -4 10 1 25 11 37 14 15 26 18 52 13 25 -5
34 -2 39 10 7 18 84 23 84 6z m98 -10 c17 -14 22 -25 17 -40 -8 -24 -18 -25
-36 -4 -7 8 -26 21 -43 29 -26 11 -28 13 -9 14 12 1 25 6 28 11 9 14 17 12 43
-10z m-1123 -8 c-22 -9 -52 -25 -65 -34 -21 -16 -25 -16 -33 -3 -4 8 -15 15
-22 15 -8 0 -15 5 -15 10 0 14 12 12 38 -6 21 -14 24 -14 45 10 16 19 32 26
57 25 l35 0 -40 -17z m139 12 c9 -3 16 -14 16 -24 0 -19 33 -36 49 -25 6 3 15
-4 21 -15 6 -11 15 -18 21 -15 5 4 9 4 9 1 0 -2 3 -12 7 -22 4 -11 2 -15 -4
-11 -15 9 -45 -28 -41 -50 2 -12 12 -18 31 -18 31 1 35 -19 16 -73 -9 -27 -13
-30 -25 -18 -8 8 -14 23 -14 33 -1 12 -9 5 -25 -21 -13 -22 -37 -47 -52 -55
l-28 -14 32 37 c34 38 41 56 47 116 6 66 -43 141 -101 156 -13 4 -23 10 -23
15 0 10 40 12 64 3z m-70 -70 c3 -8 11 -12 17 -9 15 10 59 -35 59 -60 0 -11 5
-26 10 -31 20 -20 -2 -77 -48 -121 -25 -24 -41 -43 -36 -44 5 0 0 -4 -11 -9
-35 -14 -95 3 -136 38 -23 20 -24 32 -4 32 8 0 15 -5 15 -11 0 -14 30 -38 48
-39 7 0 -5 17 -28 38 -26 26 -40 48 -40 64 0 40 12 88 20 83 4 -3 10 4 13 14
3 14 11 18 25 14 17 -4 20 -1 15 15 -3 15 2 22 24 30 40 15 50 14 57 -4z m950
10 c9 -3 16 -12 16 -19 0 -8 8 -11 19 -8 26 7 51 -33 57 -90 3 -35 -1 -52 -21
-81 -18 -27 -20 -34 -7 -26 63 36 91 109 66 170 -17 40 -17 45 -1 32 7 -5 21
-6 32 -1 11 4 23 8 27 8 9 1 28 -57 28 -85 0 -20 -4 -23 -27 -18 -26 5 -29 2
-45 -43 -23 -63 -57 -107 -88 -111 -14 -2 -53 -4 -87 -5 -55 -2 -65 1 -100 29
-40 32 -71 100 -54 117 5 5 13 -5 21 -27 6 -20 16 -39 22 -42 5 -4 5 4 -2 16
-27 51 16 169 56 153 8 -3 14 1 14 10 0 21 43 33 74 21z m10907 -42 c71 -29
143 -98 177 -170 l27 -57 0 -695 0 -695 -26 -55 c-37 -80 -81 -125 -157 -162
l-67 -33 -825 0 -825 0 -56 26 c-106 50 -170 135 -189 250 -13 82 -13 1252 0
1333 24 148 129 254 273 276 29 4 403 7 832 6 l780 -1 56 -23z m-12041 -112
c0 -5 -4 -10 -10 -10 -5 0 -10 5 -10 10 0 6 5 10 10 10 6 0 10 -4 10 -10z
m-50 -14 c0 -3 -4 -8 -10 -11 -5 -3 -10 -1 -10 4 0 6 5 11 10 11 6 0 10 -2 10
-4z m971 -26 c11 0 22 -8 25 -17 3 -10 9 -25 13 -33 5 -8 5 -23 2 -33 -6 -17
-8 -16 -28 5 -24 27 -53 81 -53 100 0 8 5 6 11 -4 5 -10 19 -18 30 -18z m-932
-41 c11 7 20 -2 38 -40 13 -27 29 -49 35 -49 6 0 9 -3 6 -6 -12 -11 -69 28
-98 68 -31 43 -42 79 -12 41 12 -16 21 -20 31 -14z m361 -19 c-13 -24 -41 -40
-71 -40 -22 0 -22 0 -3 21 10 11 26 18 36 16 9 -3 22 1 29 9 17 20 21 17 9 -6z
m910 -49 c0 -15 -61 -42 -80 -36 -25 8 -26 32 -2 37 31 7 82 6 82 -1z"/>
<path d="M15880 9812 c0 -15 32 -107 41 -116 22 -24 18 27 -5 73 -25 48 -36
62 -36 43z"/>
<path d="M3670 7160 c-25 -25 -25 -33 3 -66 27 -31 58 -27 83 12 15 22 15 26
0 49 -20 31 -58 33 -86 5z"/>
<path d="M3250 6980 c-24 -24 -25 -38 -4 -68 18 -27 55 -29 77 -4 50 55 -21
124 -73 72z"/>
<path d="M3816 6968 c-3 -7 -7 -26 -11 -43 -4 -19 -35 -58 -83 -107 -64 -63
-87 -79 -131 -92 -30 -9 -71 -16 -91 -16 -52 0 -128 25 -156 51 -19 18 -26 20
-39 9 -24 -20 -18 -40 24 -80 65 -62 199 -79 305 -40 60 23 180 130 209 186
24 46 32 111 17 129 -15 18 -39 20 -44 3z"/>
<path d="M8990 6295 c0 -12 -13 -15 -55 -15 -42 0 -55 -3 -55 -15 0 -8 -7 -15
-16 -15 -10 0 -14 -7 -12 -22 2 -13 9 -22 16 -20 6 1 12 -7 12 -18 0 -25 36
-27 42 -2 4 16 21 17 191 14 156 -2 187 -5 187 -17 0 -11 13 -15 49 -15 40 0
50 -3 54 -20 4 -17 14 -20 56 -20 l51 0 0 40 c0 29 -4 40 -15 40 -8 0 -15 7
-15 15 0 10 -10 15 -34 15 -25 0 -35 5 -39 20 -5 18 -14 20 -86 20 -65 0 -81
3 -81 15 0 13 -21 15 -125 15 -104 0 -125 -2 -125 -15z"/>
<path d="M8950 6119 c0 -17 -5 -20 -32 -17 -32 3 -33 1 -36 -34 l-3 -38 55 0
c49 0 56 2 56 20 0 19 7 20 120 20 113 0 120 -1 120 -20 0 -17 7 -20 50 -20
38 0 50 -4 50 -15 0 -10 10 -15 34 -15 25 0 35 -5 39 -20 3 -11 12 -20 20 -20
8 0 17 9 20 20 3 11 13 20 22 20 10 0 15 6 13 18 -2 9 -10 16 -17 14 -7 -1
-15 7 -18 18 -4 15 -14 20 -38 20 -25 0 -34 5 -38 21 -5 19 -11 21 -51 17 -40
-4 -46 -2 -46 14 0 17 -11 18 -160 18 -155 0 -160 -1 -160 -21z"/>
<path d="M9046 5993 c-15 -4 -16 -7 -5 -14 9 -5 -11 -9 -53 -9 l-68 0 0 -40
c0 -39 1 -40 35 -40 28 0 35 4 35 20 0 19 7 20 120 20 113 0 120 -1 120 -20 0
-18 7 -20 55 -20 39 0 54 -4 53 -12 -2 -8 11 -14 35 -16 29 -3 37 0 37 13 0 9
-9 19 -20 22 -11 3 -20 12 -20 19 0 9 -11 14 -29 14 -20 0 -30 6 -34 20 -4 17
-14 20 -71 20 -52 0 -66 3 -66 15 0 12 -12 15 -52 14 -29 -1 -62 -4 -72 -6z"/>
<path d="M6180 2568 c0 -14 7 -17 35 -15 47 3 45 32 -3 32 -24 0 -32 -4 -32
-17z"/>
<path d="M6216 2527 c-3 -13 0 -17 11 -13 8 3 28 6 45 6 43 0 30 23 -14 24
-28 1 -38 -4 -42 -17z"/>
<path d="M6326 2535 c4 -10 19 -14 45 -13 54 2 49 23 -6 26 -35 1 -43 -1 -39
-13z"/>
<path d="M5705 2520 c-4 -6 7 -10 25 -10 18 0 29 4 25 10 -3 6 -15 10 -25 10
-10 0 -22 -4 -25 -10z"/>
<path d="M5810 2518 c0 -4 32 -8 71 -8 38 0 68 4 65 9 -7 11 -136 11 -136 -1z"/>
<path d="M6000 2520 c0 -5 7 -10 15 -10 8 0 15 5 15 10 0 6 -7 10 -15 10 -8 0
-15 -4 -15 -10z"/>
<path d="M6100 2526 c0 -2 7 -7 16 -10 8 -3 12 -2 9 4 -6 10 -25 14 -25 6z"/>
<path d="M4733 2513 c9 -2 23 -2 30 0 6 3 -1 5 -18 5 -16 0 -22 -2 -12 -5z"/>
<path d="M4795 2510 c28 -12 65 -12 65 0 0 6 -19 10 -42 9 -33 0 -38 -2 -23
-9z"/>
<path d="M4900 2510 c0 -5 5 -10 10 -10 6 0 10 5 10 10 0 6 -4 10 -10 10 -5 0
-10 -4 -10 -10z"/>
<path d="M4973 2513 c15 -2 37 -2 50 0 12 2 0 4 -28 4 -27 0 -38 -2 -22 -4z"/>
<path d="M10062 1955 c-22 -19 -54 -62 -72 -96 -30 -56 -31 -65 -21 -99 6 -20
20 -45 31 -55 21 -19 28 -51 8 -39 -14 9 -5 -8 29 -54 32 -43 81 -62 160 -62
53 0 123 19 123 33 0 2 -33 2 -72 1 -74 -2 -138 10 -138 27 0 5 -6 9 -13 9 -8
0 -20 11 -27 25 -7 13 -17 23 -23 22 -5 -1 -11 3 -14 10 -4 12 12 12 52 -2 11
-4 3 4 -18 16 -32 20 -37 28 -35 54 4 38 45 61 86 47 18 -6 41 -4 71 5 38 11
48 11 68 -2 23 -16 26 -34 8 -47 -5 -4 4 -8 22 -8 20 0 36 6 42 17 5 10 12 15
16 12 9 -10 -58 -87 -87 -100 -16 -6 -54 -10 -89 -7 -53 4 -59 3 -43 -9 23
-17 123 -9 166 13 64 33 73 55 53 135 -5 20 -1 32 19 52 65 65 12 110 -142
122 -51 3 -63 1 -71 -13 -8 -14 -13 -15 -28 -5 -10 6 -17 16 -15 22 4 18 -6
13 -46 -24z m215 -59 c13 -13 -13 -25 -50 -24 -23 1 -51 -1 -62 -5 -27 -9 -54
8 -38 24 24 24 128 28 150 5z"/>
<path d="M11659 1982 c-33 -4 -104 -64 -126 -105 -30 -58 -33 -86 -14 -105 10
-9 21 -30 25 -47 5 -22 4 -26 -4 -15 -15 23 -12 -5 5 -48 35 -83 89 -115 195
-116 57 0 85 5 115 21 39 20 113 108 101 120 -3 4 -6 0 -6 -7 0 -7 -2 -11 -5
-8 -11 11 17 98 31 98 22 0 27 45 9 83 -13 29 -51 59 -77 61 -3 1 -10 5 -15
10 -5 5 -2 6 7 2 8 -4 4 2 -10 14 -55 47 -111 57 -231 42z m180 -31 c11 -7 21
-16 21 -21 0 -13 -17 -13 -22 0 -4 12 -36 17 -117 19 -63 1 -63 8 0 19 45 8
79 3 118 -17z m-179 -21 c0 -5 -5 -10 -11 -10 -5 0 -7 5 -4 10 3 6 8 10 11 10
2 0 4 -4 4 -10z m118 -56 c12 -4 22 -10 22 -15 0 -5 -10 -8 -22 -7 -13 0 -35
-3 -50 -7 -22 -5 -28 -4 -28 8 0 24 33 33 78 21z m81 -123 c11 -11 22 -17 25
-15 3 2 4 1 2 -2 -2 -3 -8 -6 -13 -6 -4 1 -16 -6 -25 -15 -12 -11 -21 -12 -37
-4 -26 14 -116 14 -143 0 -16 -8 -24 -8 -35 4 -14 14 -12 17 17 32 21 11 44
15 68 11 21 -4 44 -2 52 4 24 16 69 11 89 -9z m-71 -47 c32 -9 27 -21 -13 -27
-63 -10 -140 12 -87 26 26 7 74 7 100 1z m120 -19 c-8 -18 -15 -22 -22 -15 -7
7 -4 15 10 25 25 19 25 19 12 -10z m-174 -24 c44 -1 82 -3 84 -6 3 -3 11 0 17
5 13 11 45 3 45 -11 0 -5 -12 -15 -27 -23 -36 -18 -103 -27 -103 -14 0 7 -5 6
-14 -1 -14 -12 -62 0 -104 27 -17 11 -20 18 -11 28 7 9 16 11 23 5 6 -5 47 -9
90 -10z m-159 -1 c3 -5 1 -10 -4 -10 -6 0 -11 5 -11 10 0 6 2 10 4 10 3 0 8
-4 11 -10z"/>
<path d="M10517 1924 c-16 -8 -25 -20 -21 -26 4 -7 3 -8 -4 -4 -15 9 -55 -18
-87 -59 l-26 -34 30 -59 c46 -91 75 -120 139 -138 103 -30 272 -3 272 44 0 7
5 10 10 7 6 -3 1 10 -11 29 -26 44 -30 45 -19 6 10 -34 4 -39 -16 -12 -12 15
-12 14 -7 -8 5 -24 5 -24 -10 -5 -16 20 -16 19 -10 -4 4 -17 3 -22 -5 -17 -7
4 -12 1 -12 -6 0 -10 -2 -10 -9 1 -12 19 -43 23 -53 8 -6 -9 -8 -9 -8 1 0 7
-4 10 -10 7 -5 -3 -10 0 -11 7 0 7 -5 2 -10 -12 -8 -19 -12 -21 -18 -11 -5 7
-13 11 -19 7 -6 -3 -13 0 -15 6 -4 10 -6 10 -6 1 -1 -7 -6 -13 -12 -13 -6 0
-9 6 -6 14 3 8 -1 17 -10 20 -8 4 -13 13 -9 21 3 8 2 14 -2 14 -23 -4 -34 3
-28 17 4 12 2 15 -9 10 -9 -3 -15 0 -15 9 0 19 34 19 63 0 13 -8 32 -16 42
-18 11 -1 26 -6 33 -11 17 -10 105 3 114 17 4 6 33 10 71 9 l65 -2 -1 54 c-2
42 -5 52 -14 44 -9 -7 -21 -5 -38 6 -14 9 -30 14 -35 11 -10 -6 -81 25 -92 40
-5 6 -8 5 -8 -3 0 -9 -11 -7 -40 8 -46 24 -54 25 -47 6 4 -10 0 -12 -14 -9
-15 4 -18 2 -13 -11 4 -12 2 -15 -9 -10 -19 7 -28 39 -14 53 15 15 -3 13 -36
-5z m133 -165 c0 -11 -27 -12 -34 0 -3 4 -3 11 0 14 8 8 34 -3 34 -14z m43 6
c0 -6 -7 -11 -16 -13 -12 -3 -15 1 -11 13 7 17 25 17 27 0z"/>
<path d="M11003 1911 c-76 -55 -125 -143 -88 -157 10 -4 13 -9 6 -13 -7 -4 1
-25 22 -56 48 -75 102 -98 225 -98 98 1 179 20 175 42 -2 5 3 8 10 6 6 -3 23
5 37 16 l25 21 -27 -16 c-27 -16 -28 -16 -28 5 0 20 -1 21 -25 5 -14 -9 -31
-14 -37 -10 -7 4 -8 3 -4 -4 8 -13 -23 -31 -41 -25 -7 3 -13 0 -13 -5 0 -5
-24 -8 -52 -7 -64 3 -153 39 -142 57 5 8 0 7 -11 -2 -17 -14 -17 -13 -10 9 5
18 4 22 -6 16 -8 -5 -11 -4 -6 1 10 10 12 11 70 14 l42 2 -35 13 c-29 11 -32
14 -17 20 15 6 16 10 5 16 -11 7 -11 9 1 9 9 0 11 7 8 21 -4 17 2 24 31 36 31
13 46 14 92 4 72 -14 87 -30 60 -59 l-21 -22 38 0 38 -1 -26 -14 c-14 -8 -59
-18 -100 -24 l-74 -10 70 4 c161 8 275 37 275 69 0 20 -40 67 -52 60 -5 -3
-22 5 -36 19 -17 16 -41 26 -67 29 -22 1 -46 8 -53 15 -6 6 -24 10 -39 9 -16
-2 -41 0 -56 5 -33 9 -89 1 -81 -12 3 -5 -2 -9 -10 -9 -9 0 -16 7 -16 15 0 8
-4 15 -10 15 -5 0 -10 -5 -10 -12 0 -6 -3 -8 -6 -5 -4 4 -1 13 6 22 19 23 8
18 -37 -14z m-33 -192 c0 6 5 11 10 11 12 0 13 -27 1 -34 -4 -3 -17 4 -27 17
-16 18 -16 19 -1 8 11 -9 17 -10 17 -2z"/>
<path d="M11118 1743 c7 -3 16 -2 19 1 4 3 -2 6 -13 5 -11 0 -14 -3 -6 -6z"/>
<path d="M10820 1715 c0 -5 5 -17 10 -25 5 -8 10 -10 10 -5 0 6 -5 17 -10 25
-5 8 -10 11 -10 5z"/>
<path d="M16132 2163 c-36 -7 -87 -66 -102 -116 -17 -62 -9 -150 17 -185 11
-15 39 -40 62 -57 113 -80 272 3 288 149 6 53 -19 135 -50 164 -47 44 -130 61
-215 45z m163 -77 c23 -18 38 -41 46 -69 7 -23 16 -47 21 -53 6 -8 0 -13 -17
-16 -26 -5 -32 1 -15 18 19 19 -11 86 -49 111 -45 30 -118 31 -154 2 -32 -25
-54 -94 -36 -115 7 -9 8 -14 1 -14 -6 0 -19 -3 -29 -7 -14 -5 -16 -4 -7 8 6 8
14 31 17 53 3 21 13 49 22 63 38 58 137 67 200 19z m-107 -184 c-2 -29 -7 -53
-13 -55 -14 -3 -29 85 -21 119 7 28 8 28 22 9 10 -13 14 -38 12 -73z m79 30
c3 -23 2 -53 -2 -69 -6 -27 -7 -27 -21 -9 -14 20 -20 117 -7 130 12 11 24 -10
30 -52z"/>
<path d="M16788 2163 c7 -3 16 -2 19 1 4 3 -2 6 -13 5 -11 0 -14 -3 -6 -6z"/>
<path d="M15593 2153 c15 -2 39 -2 55 0 15 2 2 4 -28 4 -30 0 -43 -2 -27 -4z"/>
<path d="M16703 2144 c-18 -9 -40 -28 -49 -43 -15 -24 -14 -24 17 6 19 17 50
36 69 41 20 6 26 10 15 11 -11 0 -34 -7 -52 -15z"/>
<path d="M16838 2153 c7 -3 16 -2 19 1 4 3 -2 6 -13 5 -11 0 -14 -3 -6 -6z"/>
<path d="M16895 2131 c43 -26 65 -54 81 -103 13 -38 14 -39 9 -8 -7 42 -40 93
-76 114 -38 22 -51 20 -14 -3z"/>
<path d="M15508 2130 c-17 -11 -58 -71 -58 -86 0 -5 9 7 21 26 11 19 31 43 42
52 24 19 22 23 -5 8z"/>
<path d="M15752 2104 c15 -16 34 -45 42 -64 8 -19 15 -29 16 -21 0 22 -40 86
-63 100 -18 11 -17 8 5 -15z"/>
<path d="M16783 2103 c9 -2 25 -2 35 0 9 3 1 5 -18 5 -19 0 -27 -2 -17 -5z"/>
<path d="M15555 2088 c-23 -12 -54 -48 -55 -63 0 -5 7 1 16 14 9 12 30 31 48
42 33 20 25 26 -9 7z"/>
<path d="M15680 2087 c0 -2 15 -14 33 -27 20 -15 27 -17 18 -6 -13 16 -51 41
-51 33z"/>
<path d="M16696 2059 c-14 -17 -26 -36 -26 -42 0 -7 6 -3 12 8 6 11 20 30 31
43 11 12 18 22 15 22 -4 0 -18 -14 -32 -31z"/>
<path d="M16873 2079 c10 -6 27 -25 38 -42 10 -18 19 -27 19 -20 0 16 -49 73
-63 73 -7 0 -4 -5 6 -11z"/>
<path d="M16626 2055 c-3 -9 -6 -22 -5 -28 0 -7 5 -1 10 12 5 13 8 26 5 28 -2
2 -6 -3 -10 -12z"/>
<path d="M15441 2014 c0 -11 3 -14 6 -6 3 7 2 16 -1 19 -3 4 -6 -2 -5 -13z"/>
<path d="M16613 1960 c0 -30 2 -43 4 -27 2 15 2 39 0 55 -2 15 -4 2 -4 -28z"/>
<path d="M16928 1971 c-3 -19 0 -27 7 -24 7 2 10 15 7 29 -6 31 -9 30 -14 -5z"/>
<path d="M15811 1964 c0 -11 3 -14 6 -6 3 7 2 16 -1 19 -3 4 -6 -2 -5 -13z"/>
<path d="M16657 1961 c-3 -12 -1 -21 3 -21 14 0 19 15 11 29 -6 9 -10 7 -14
-8z"/>
<path d="M16823 1965 c-3 -9 -3 -19 1 -22 3 -4 6 1 6 11 0 10 5 14 12 10 7 -4
8 -3 4 4 -10 16 -15 15 -23 -3z"/>
<path d="M15574 1956 c-7 -17 2 -105 11 -114 12 -12 20 14 18 60 -1 54 -17 84
-29 54z"/>
<path d="M15650 1921 c0 -54 7 -81 21 -81 10 0 12 90 3 114 -12 32 -24 15 -24
-33z"/>
<path d="M15485 1950 c-3 -5 1 -10 10 -10 9 0 13 5 10 10 -3 6 -8 10 -10 10
-2 0 -7 -4 -10 -10z"/>
<path d="M15750 1950 c-12 -7 -10 -9 7 -7 12 0 19 5 17 9 -6 10 -6 10 -24 -2z"/>
<path d="M16852 1933 c-2 -25 -17 -31 -25 -10 -4 9 -6 9 -6 -1 -1 -7 6 -15 14
-18 8 -4 15 -17 15 -31 0 -13 -4 -21 -10 -18 -5 3 -10 1 -10 -4 0 -16 20 -13
26 3 3 7 4 33 1 57 -2 24 -4 34 -5 22z"/>
<path d="M16981 1924 c0 -11 3 -14 6 -6 3 7 2 16 -1 19 -3 4 -6 -2 -5 -13z"/>
<path d="M15797 1898 c-10 -37 -52 -85 -96 -108 -20 -10 -31 -19 -25 -20 5 0
30 13 55 29 44 28 85 88 76 114 -2 6 -7 0 -10 -15z"/>
<path d="M15440 1901 c0 -25 39 -78 80 -106 29 -20 55 -29 93 -31 49 -3 43 0
-29 11 -38 6 -112 68 -130 109 -7 17 -13 25 -14 17z"/>
<path d="M16740 1890 c0 -11 2 -20 4 -20 2 0 6 9 9 20 3 11 1 20 -4 20 -5 0
-9 -9 -9 -20z"/>
<path d="M16620 1897 c-1 -38 97 -127 139 -127 9 0 -2 9 -24 19 -40 18 -82 58
-103 96 -6 11 -12 16 -12 12z"/>
<path d="M16970 1892 c0 -21 -65 -85 -105 -103 -22 -10 -33 -19 -24 -19 44 0
157 106 135 128 -3 3 -6 0 -6 -6z"/>
<path d="M16750 1848 c0 -4 7 -8 15 -8 8 0 15 4 15 8 0 5 -7 9 -15 9 -8 0 -15
-4 -15 -9z"/>
<path d="M16788 1763 c7 -3 16 -2 19 1 4 3 -2 6 -13 5 -11 0 -14 -3 -6 -6z"/>
<path d="M16782 1648 c-7 -7 -12 -27 -12 -45 0 -32 -14 -45 -23 -20 -2 6 -8 9
-12 5 -10 -10 22 -41 35 -33 5 3 10 24 10 46 0 38 13 52 23 27 3 -8 6 -7 6 4
1 22 -13 30 -27 16z"/>
<path d="M16840 1590 c0 -6 4 -9 9 -6 5 3 11 -7 14 -22 4 -16 20 -36 41 -49
45 -29 68 -73 76 -148 l7 -60 1 50 c2 65 -25 124 -76 165 -23 18 -42 42 -44
53 -3 22 -28 37 -28 17z"/>
<path d="M16191 1579 c-1 -9 8 -19 19 -22 11 -3 20 -1 20 4 0 5 -6 9 -14 9 -8
0 -17 6 -19 13 -4 7 -6 6 -6 -4z"/>
<path d="M16125 1569 c-11 -16 -1 -19 13 -3 7 8 8 14 3 14 -5 0 -13 -5 -16
-11z"/>
<path d="M16265 1571 c-3 -5 0 -13 6 -17 8 -4 7 -9 -2 -15 -11 -7 -10 -9 4 -9
19 0 23 15 7 25 -6 4 -8 11 -5 16 4 5 4 9 1 9 -3 0 -7 -4 -11 -9z"/>
<path d="M16811 1573 c-1 -17 16 -25 25 -12 4 7 3 9 -4 5 -5 -3 -13 0 -15 6
-4 9 -6 10 -6 1z"/>
<path d="M15593 1563 c9 -2 25 -2 35 0 9 3 1 5 -18 5 -19 0 -27 -2 -17 -5z"/>
<path d="M15548 1553 c7 -3 16 -2 19 1 4 3 -2 6 -13 5 -11 0 -14 -3 -6 -6z"/>
<path d="M15658 1553 c7 -3 16 -2 19 1 4 3 -2 6 -13 5 -11 0 -14 -3 -6 -6z"/>
<path d="M16085 1550 c-3 -6 1 -7 9 -4 18 7 21 14 7 14 -6 0 -13 -4 -16 -10z"/>
<path d="M16153 1545 c0 -8 4 -12 9 -9 5 3 6 10 3 15 -9 13 -12 11 -12 -6z"/>
<path d="M16720 1553 c0 -5 -14 -16 -30 -25 -31 -18 -70 -72 -70 -98 0 -8 9 4
20 28 12 26 33 50 55 63 30 18 46 39 30 39 -3 0 -5 -3 -5 -7z"/>
<path d="M15488 1523 c-28 -31 -52 -72 -45 -79 2 -3 10 9 17 26 7 17 26 42 42
55 16 14 26 25 21 25 -5 0 -21 -12 -35 -27z"/>
<path d="M15705 1538 c11 -6 31 -20 45 -32 14 -11 11 -6 -7 12 -18 17 -38 32
-45 32 -7 0 -4 -6 7 -12z"/>
<path d="M16060 1531 c0 -6 4 -13 10 -16 6 -3 7 1 4 9 -7 18 -14 21 -14 7z"/>
<path d="M16102 1531 c-8 -4 -14 -12 -15 -17 -1 -5 -12 -9 -24 -9 -12 0 -27
-6 -32 -12 -8 -10 -8 -10 1 -3 15 13 31 13 23 1 -3 -5 0 -13 6 -17 8 -4 9 -3
5 4 -4 7 -1 12 8 12 8 0 21 9 29 20 8 11 17 17 22 12 5 -4 5 -1 1 6 -8 14 -7
14 -24 3z"/>
<path d="M16325 1531 c-3 -5 -1 -12 5 -16 6 -4 8 -10 5 -14 -2 -5 2 -17 11
-27 14 -18 15 -18 4 4 -6 12 -8 22 -4 22 3 0 1 7 -6 15 -8 10 -9 15 -2 15 6 0
16 -8 21 -17 6 -10 11 -13 11 -7 0 11 -20 34 -31 34 -4 0 -10 -4 -14 -9z"/>
<path d="M15543 1490 c-30 -18 -54 -48 -53 -67 1 -4 7 4 16 19 8 15 31 37 52
47 20 11 33 20 27 21 -5 0 -24 -9 -42 -20z"/>
<path d="M15675 1488 c11 -6 27 -16 35 -22 9 -6 5 -1 -8 12 -13 12 -28 22 -35
22 -7 0 -3 -6 8 -12z"/>
<path d="M16109 1473 l-24 -28 30 25 c17 14 32 26 34 28 2 1 0 2 -6 2 -5 0
-20 -12 -34 -27z"/>
<path d="M16251 1497 c2 -2 18 -11 34 -21 l30 -17 -24 20 c-13 12 -28 21 -34
21 -6 0 -8 -1 -6 -3z"/>
<path d="M16778 1493 c12 -2 30 -2 40 0 9 3 -1 5 -23 4 -22 0 -30 -2 -17 -4z"/>
<path d="M16376 1482 c-3 -5 1 -9 9 -9 8 0 12 4 9 9 -3 4 -7 8 -9 8 -2 0 -6
-4 -9 -8z"/>
<path d="M16725 1480 c-3 -6 1 -7 9 -4 18 7 21 14 7 14 -6 0 -13 -4 -16 -10z"/>
<path d="M15780 1465 c0 -5 5 -17 10 -25 5 -8 10 -10 10 -5 0 6 -5 17 -10 25
-5 8 -10 11 -10 5z"/>
<path d="M16685 1444 c-9 -14 -15 -27 -13 -30 2 -2 12 10 22 26 21 37 15 40
-9 4z"/>
<path d="M16895 1446 c10 -14 19 -26 22 -26 7 0 -17 39 -28 46 -6 3 -3 -5 6
-20z"/>
<path d="M16036 1441 c-14 -15 -15 -21 -4 -27 7 -4 10 -3 5 1 -4 5 0 17 10 27
9 10 14 18 11 18 -3 0 -13 -9 -22 -19z"/>
<path d="M16370 1450 c-9 -6 -10 -10 -3 -10 6 0 15 5 18 10 8 12 4 12 -15 0z"/>
<path d="M16000 1439 c0 -5 5 -7 10 -4 6 3 10 8 10 11 0 2 -4 4 -10 4 -5 0
-10 -5 -10 -11z"/>
<path d="M15432 1405 c0 -16 2 -22 5 -12 2 9 2 23 0 30 -3 6 -5 -1 -5 -18z"/>
<path d="M15996 1398 c3 -5 10 -6 15 -3 13 9 11 12 -6 12 -8 0 -12 -4 -9 -9z"/>
<path d="M16611 1394 c0 -11 3 -14 6 -6 3 7 2 16 -1 19 -3 4 -6 -2 -5 -13z"/>
<path d="M15747 1370 c-3 -12 0 -20 8 -20 8 0 11 8 8 20 -3 11 -7 20 -8 20 -1
0 -5 -9 -8 -20z"/>
<path d="M16067 1371 c-4 -17 -3 -21 5 -13 5 5 8 16 6 23 -3 8 -7 3 -11 -10z"/>
<path d="M16155 1370 c-7 -23 4 -108 15 -115 13 -8 21 42 14 85 -8 47 -20 59
-29 30z"/>
<path d="M16659 1362 c-3 -20 -2 -29 4 -23 5 5 7 19 5 32 -3 20 -5 19 -9 -9z"/>
<path d="M15477 1361 c-3 -13 -1 -18 9 -14 7 2 10 11 7 19 -7 19 -10 18 -16
-5z"/>
<path d="M16230 1331 c0 -56 8 -84 21 -75 10 6 12 84 3 108 -12 32 -24 15 -24
-33z"/>
<path d="M16330 1370 c0 -5 5 -10 11 -10 5 0 7 5 4 10 -3 6 -8 10 -11 10 -2 0
-4 -4 -4 -10z"/>
<path d="M15433 1335 c0 -22 2 -30 4 -17 2 12 2 30 0 40 -3 9 -5 -1 -4 -23z"/>
<path d="M16750 1308 c0 -69 14 -98 26 -53 8 31 -1 94 -16 109 -7 7 -10 -11
-10 -56z"/>
<path d="M16824 1356 c-7 -18 1 -115 11 -124 12 -13 20 14 18 65 -2 59 -17 90
-29 59z"/>
<path d="M16923 1351 c-10 -16 -9 -18 7 -14 11 3 16 11 13 19 -7 18 -6 18 -20
-5z"/>
<path d="M16007 1340 c-3 -11 -4 -20 -3 -20 1 0 9 9 19 20 13 15 14 20 3 20
-7 0 -16 -9 -19 -20z"/>
<path d="M15801 1334 c0 -11 3 -14 6 -6 3 7 2 16 -1 19 -3 4 -6 -2 -5 -13z"/>
<path d="M16611 1304 c0 -11 3 -14 6 -6 3 7 2 16 -1 19 -3 4 -6 -2 -5 -13z"/>
<path d="M15777 1275 c-10 -21 -36 -48 -64 -65 -46 -30 -52 -41 -10 -19 45 23
109 101 95 115 -3 2 -12 -12 -21 -31z"/>
<path d="M16036 1292 c-3 -5 1 -9 9 -9 8 0 12 4 9 9 -3 4 -7 8 -9 8 -2 0 -6
-4 -9 -8z"/>
<path d="M16965 1281 c-12 -37 -49 -74 -99 -97 -28 -13 -45 -24 -38 -24 22 0
86 37 113 67 25 26 47 73 35 73 -2 0 -7 -9 -11 -19z"/>
<path d="M15440 1284 c0 -27 102 -115 116 -101 3 3 -3 8 -14 11 -11 4 -39 27
-61 51 -23 25 -41 42 -41 39z"/>
<path d="M16348 1271 c-2 -3 -18 -18 -36 -34 l-34 -27 37 5 c34 4 36 3 23 -13
-12 -15 -11 -16 4 -3 23 17 13 34 -15 25 -21 -6 -21 -5 -5 12 14 14 21 16 30
6 7 -7 17 -12 23 -12 5 0 2 5 -8 11 -17 10 -17 12 -1 23 15 11 15 13 1 13 -9
0 -18 -3 -19 -6z"/>
<path d="M16620 1273 c0 -18 68 -85 80 -78 5 3 10 12 9 18 0 9 -2 9 -5 0 -8
-19 -33 -4 -59 36 -14 19 -25 30 -25 24z"/>
<path d="M16071 1232 c-10 -19 -6 -32 11 -32 5 0 7 10 3 23 -6 20 -4 20 19 -6
14 -15 26 -24 26 -20 0 11 -11 25 -32 41 -14 11 -18 10 -27 -6z"/>
<path d="M16731 1213 c0 -12 4 -25 9 -28 14 -9 50 4 50 18 0 8 -3 8 -12 -1
-19 -19 -36 -14 -41 11 -4 22 -4 22 -6 0z"/>
<path d="M16257 1203 c-10 -9 -9 -23 1 -23 5 0 9 7 9 15 0 17 -1 18 -10 8z"/>
<path d="M16141 1174 c0 -11 3 -14 6 -6 3 7 2 16 -1 19 -3 4 -6 -2 -5 -13z"/>
<path d="M16280 1180 c0 -5 5 -10 11 -10 5 0 7 5 4 10 -3 6 -8 10 -11 10 -2 0
-4 -4 -4 -10z"/>
<path d="M15578 1173 c6 -2 18 -2 25 0 6 3 1 5 -13 5 -14 0 -19 -2 -12 -5z"/>
<path d="M15628 1173 c6 -2 18 -2 25 0 6 3 1 5 -13 5 -14 0 -19 -2 -12 -5z"/>
<path d="M16211 1164 c0 -11 3 -14 6 -6 3 7 2 16 -1 19 -3 4 -6 -2 -5 -13z"/>
<path d="M16790 1171 c0 -6 4 -13 10 -16 6 -3 7 1 4 9 -7 18 -14 21 -14 7z"/>
<path d="M16748 1001 c-45 -9 -84 -34 -99 -63 -10 -20 -7 -18 20 6 l31 30 0
-27 c0 -28 9 -34 26 -18 5 5 25 14 44 19 20 5 34 15 32 22 -1 6 3 18 9 26 13
16 0 17 -63 5z"/>
<path d="M16111 982 c-19 -10 -41 -30 -50 -43 -12 -20 -9 -18 20 8 19 17 50
36 69 41 21 6 27 11 15 11 -11 1 -36 -7 -54 -17z"/>
<path d="M16231 996 c2 -2 18 -6 34 -10 22 -5 26 -4 15 4 -14 9 -59 15 -49 6z"/>
<path d="M16862 989 c19 -7 29 -20 35 -47 8 -31 13 -37 36 -37 15 0 32 -7 37
-15 5 -8 10 -10 10 -5 0 35 -92 116 -130 114 -8 0 -3 -5 12 -10z"/>
<path d="M16319 962 c13 -11 33 -30 43 -43 11 -13 16 -17 12 -9 -12 24 -37 51
-59 62 -15 7 -14 5 4 -10z"/>
<path d="M15487 963 c-4 -3 -7 -11 -7 -17 0 -6 5 -5 12 2 6 6 9 14 7 17 -3 3
-9 2 -12 -2z"/>
<path d="M15550 940 c-8 -5 -10 -10 -5 -10 6 0 17 5 25 10 8 5 11 10 5 10 -5
0 -17 -5 -25 -10z"/>
<path d="M16188 943 c6 -2 18 -2 25 0 6 3 1 5 -13 5 -14 0 -19 -2 -12 -5z"/>
<path d="M16740 921 c-19 -10 -41 -29 -47 -42 -17 -31 -16 -76 0 -82 8 -3 11
-19 9 -46 -4 -37 -7 -41 -33 -41 -16 0 -32 7 -38 18 -7 12 -10 13 -11 3 0 -18
93 -111 111 -111 10 1 9 4 -3 11 -12 6 -18 22 -18 44 0 28 4 35 20 35 17 0 20
7 20 50 0 43 -3 50 -20 50 -17 0 -20 7 -20 39 0 38 1 39 41 43 22 2 42 2 45
-1 10 -11 3 -81 -8 -81 -9 0 -12 -15 -10 -50 2 -27 8 -50 14 -50 6 0 8 -21 6
-50 -3 -48 -2 -50 22 -50 14 0 48 13 75 28 56 30 95 92 95 148 0 27 -3 31 -19
27 -12 -3 -17 -11 -14 -19 4 -10 -3 -14 -23 -14 -23 0 -26 2 -14 11 11 8 12
12 3 16 -7 2 -13 19 -13 37 0 51 -20 70 -65 63 -31 -5 -38 -3 -42 13 -7 25
-19 25 -63 1z m110 -111 c0 -5 11 -10 25 -10 22 0 25 -4 25 -39 0 -30 -4 -40
-20 -44 -11 -3 -20 -12 -20 -21 0 -25 -24 -18 -37 11 -16 34 -17 85 -1 101 15
15 28 16 28 2z m110 -103 c0 -2 -11 -14 -25 -27 l-25 -23 0 26 c0 22 5 27 25
27 14 0 25 -1 25 -3z"/>
<path d="M16109 903 l-24 -28 28 24 c15 14 27 26 27 28 0 8 -8 1 -31 -24z"/>
<path d="M16270 927 c0 -3 12 -12 26 -22 15 -9 23 -12 20 -6 -7 11 -46 35 -46
28z"/>
<path d="M15510 905 c-7 -9 -10 -18 -7 -21 3 -3 10 4 17 15 13 25 8 27 -10 6z"/>
<path d="M15716 898 c10 -14 21 -24 23 -22 3 3 -6 15 -18 27 l-24 22 19 -27z"/>
<path d="M16620 871 c-5 -20 -9 -56 -8 -81 0 -29 2 -36 5 -17 3 18 10 27 23
27 13 0 20 10 24 36 4 19 9 41 12 48 3 8 -5 15 -20 18 -23 5 -27 1 -36 -31z"/>
<path d="M15796 877 c3 -10 9 -15 12 -12 3 3 0 11 -7 18 -10 9 -11 8 -5 -6z"/>
<path d="M16981 854 c0 -11 3 -14 6 -6 3 7 2 16 -1 19 -3 4 -6 -2 -5 -13z"/>
<path d="M16023 805 c0 -33 2 -45 4 -27 2 18 2 45 0 60 -2 15 -4 0 -4 -33z"/>
<path d="M16393 810 c0 -30 2 -43 4 -27 2 15 2 39 0 55 -2 15 -4 2 -4 -28z"/>
<path d="M15751 834 c0 -11 3 -14 6 -6 3 7 2 16 -1 19 -3 4 -6 -2 -5 -13z"/>
<path d="M16338 806 c-3 -16 -1 -23 7 -19 7 2 11 13 8 24 -7 25 -10 24 -15 -5z"/>
<path d="M16068 802 c-5 -18 -2 -22 15 -22 13 0 17 3 11 8 -6 4 -13 14 -16 22
-3 10 -6 8 -10 -8z"/>
<path d="M16166 803 c13 -9 16 -63 4 -63 -10 0 -1 -38 10 -45 4 -3 7 21 6 52
-1 41 -5 57 -16 60 -10 3 -11 2 -4 -4z"/>
<path d="M16235 800 c-8 -13 4 -70 15 -70 5 0 11 -8 13 -17 2 -10 3 -4 0 12
-2 17 -8 32 -13 33 -6 2 -10 10 -10 18 0 9 5 12 10 9 6 -3 10 -2 10 4 0 15
-18 23 -25 11z"/>
<path d="M15435 760 c-3 -5 -1 -10 4 -10 6 0 11 5 11 10 0 6 -2 10 -4 10 -3 0
-8 -4 -11 -10z"/>
<path d="M15580 759 c0 -5 5 -7 10 -4 6 3 10 8 10 11 0 2 -4 4 -10 4 -5 0 -10
-5 -10 -11z"/>
<path d="M15660 740 c0 -5 5 -10 10 -10 6 0 10 5 10 10 0 6 -4 10 -10 10 -5 0
-10 -4 -10 -10z"/>
<path d="M16380 732 c0 -21 -65 -85 -105 -103 -22 -10 -33 -19 -24 -19 44 0
157 106 135 128 -3 3 -6 0 -6 -6z"/>
<path d="M16030 722 c0 -16 85 -102 102 -102 6 0 -5 12 -25 28 -21 15 -46 41
-57 57 -11 17 -20 24 -20 17z"/>
<path d="M15515 650 c3 -5 8 -10 11 -10 2 0 4 5 4 10 0 6 -5 10 -11 10 -5 0
-7 -4 -4 -10z"/>
<path d="M15545 630 c3 -5 8 -10 11 -10 2 0 4 5 4 10 0 6 -5 10 -11 10 -5 0
-7 -4 -4 -10z"/>
<path d="M16758 613 c7 -3 16 -2 19 1 4 3 -2 6 -13 5 -11 0 -14 -3 -6 -6z"/>
<path d="M16198 603 c7 -3 16 -2 19 1 4 3 -2 6 -13 5 -11 0 -14 -3 -6 -6z"/>
</g>
</svg>
